<svg id="mapSVG" xmlns="http://www.w3.org/2000/svg" version="1.1" xmlns:xlink="http://www.w3.org/1999/xlink" xmlns:ev="http://www.w3.org/2001/xml-events" style="overflow: hidden; " width="360" height="360" viewBox="0 0 360 360"><rect x="0" y="0" width="360" height="360" id="svgBackground" fill="#FFFFFF"/><g id="viewport-20260424201015356" class="svg-pan-zoom_viewport" transform="matrix(3.6,0,0,3.6,0,0)" style="transform: matrix(3.6, 0, 0, 3.6, 0, 0);">
<!-- © Copyright FreeSVGMaps.com, Striped Candy LLC All rights reserved -->
  
  <g id="mapGroup"><path id="mapPath" d="M36.616811,42.684664l-.112373.561868-.22475.22475-.22475.22475.449499.561868.22475-.22475.22475-.561868.337122-.337122.112373-.786617-.449491.89899.112373-.561868h-.449503ZM33.807464,52.011693l-.337122,1.460858-.112373.674241-.337122.561868.337122.561868h.337122l.112373.786617-.22475.786617.337122.22475.561868-.112373c-.112373-.786617-.112373-1.460858-.22475-2.24748l.561868-.22475v.786617l.674241.449499-.112369.337122.112373.337122.786617-.337122-.337122.674241.449499.561868.449499-.22475v-.561868l-.786617-1.011367.112373-.337122-.786617-1.12374.674241-.337122.337122-.561868.337122.112373.112373-.449499-1.573235.337122-.449499.449499-.786617-.786617.112373-.674241.674241-.112373,1.348489-.112373.786617.112373.674241-.22475.561868-.89899-.112373-.22475-.786617.674241h-1.011367l-1.011367-.112373-.674241-.22475-.674241.674241-.112365.337126v.000012ZM35.493071,59.315995l-.561868-.22475-.674241.22475v.337122l1.12374.112373,1.12374-.22475.112373-.449499-.561868.112373s-.561868.112381-.561876.112381ZM31.222866,46.168252l-.449497.674241-.674241.674241-.674243.449499-.33712.337122c-.22475.449499-.56187.786617-.89899,1.236113l-.89899.22475-.337122.224753-.112375.786617-.56187.22475-.56187-.337122-.449495.561864-.112375.786617.112375.786617.22475.674241.449495.22475.22475,1.12374.674243.112373.56187-.112373.33712.449499.89899-.337122.449495.337122h.56187l.337122.561868.89899-.449499v.22475l.22475-1.348489v-.89899l.786617-.561868-.112373-.786617.22475-.561868,1.011367-.112373-.89899-.786617.112373-.449499-.561868-.786617.449499-.786617.561868-.337122-.112381-.449491h.561868l.112373-.337122c-.449499-.112373-.786617-.22475-1.236113-.449499v-.337122l-.449499-.449499s-.337122,0-.337122.000004ZM32.908473,59.428372l-.337122-.22475-.22475.337122h-.449499l-.22475.449499h.449499l.561868-.112373.89899-.22475-.22475-.337122s-.449491.112373-.449487.112373ZM33.133223,43.134159l-.561868.561868-.561868.561868-.449499.674241,1.12374-.89899.449499-.561868.561868-.561868-.112373-.674241-.449499.89899ZM38.414795,59.765494l-.786617.337122-.449499.449499v.337122l.112373.112373.674241-.22475.449499-.674241c.561868-.112373,1.12374-.337122,1.573235-.561868l.337122-.22475-.337122-.112373-.22475.112373h-.561868l-.674241.22475s-.112373.22475-.112373.224742ZM23.019573,56.169526l.112375-1.348489-.449495-.561868-.56187-.112373-.33712-.449499-.112375-.561868h-.22475l-.449495-.337122.22475-.674241-.56187-.337122-.449497-.674245-.674243-.561868h-.674243l-.674243-.89899-.449495-.337122-.56187-.561868-.56187-.786617-1.011363-.112373h-.449495l-.112375.337122.674243.89899.56187.449499.33712.786617.674243.561868.33712.674241.22475.786617.674243.674241.674243,1.236113.449495.674241.674243.674241.33712.561868,1.011363.674241.674243.674241h.786617c0-.449487-.112375-.898982-.112369-1.348474ZM57.743101,97.635485h-1.573235l-.112373-.112369-.22475-.112369v-.112369c-.112377-.112385-.337122-.112385-.561868-.112385l-.22475-.112369-.112373-.112369-.22475-.112369-.22475.112369h-.337122c-.337122-.112369-.674241-.112369-1.011367-.224746-.22475-.112369-.449499-.224746-.674241-.224746l-.22475-.112385h.112373l-.22475-.112369c-.786617-.112369-1.685608-.112369-2.584598,0l-.337122-.112369-.112373-.112385-.112373-.112369-.112377-.112369-.22475-.112369v.112369l-.112373.224746c-.112373.112369-.337122.112369-.561868.112369h-.674241c-.112373,0-.337122.112369-.561868.112369-.112373-.112369-.337122-.112369-.561868-.112369h-.337122l-.22475.112369c-.22475,0-.449499-.112369-.674241-.112369h-.22475l-.112373.112369-.224753.112385h-.786617l-.449499-.112369-.337122-.112369h-.337122l-.337122-.112385-.22475-.112369-.337122-.112369-.112373.112369h-.337122l-.112377.112369-.22475.112369c-.22475,0-.337122.112369-.561868.112369h-.561868c-.337122-.112369-.674241-.224746-1.011367-.337122l-.337122-.112369h-.22475v.224753l-.112373.112369v.224746h-.786617l-.112373.112369-.337122-.112369h-1.236113l-.337122-.112369c-.22475-.112369-.449499-.112369-.674241-.224746l.337122.224746v.112369h-.22475c-.112373,0-.112373.112369-.22475.112369h-.22475v.224746l.112373.112369v.224746l.22475.224746c.22475,0,.337122.112369.449499.224746v.112369h-.112373c.112373.112369.22475.112369.337122.112369,4.719705,1.460866,9.664151,2.24748,14.833355,2.24748.89899,0,1.79798,0,2.584598-.112369l-.112373-.112369c.112373,0,.22475-.112369.337122-.112369l.22475-.112369.337122-.112369h.337122c.22475-.112369.337122-.112369.561868-.112369h0v-.112369c.112373-.112369.22475-.112369.337122-.224746.22475-.112369.337122-.224746.449499-.224746.22475,0,.337122,0,.561868-.112369l.22475-.112369h.337122l.22475-.112369h.337122c.337122-.224746.674241-.337122,1.011367-.449499l.22475-.112369v-.112369h-.112381l-.112373-.112369.000008-.000047ZM30.099126,58.8665l-1.236113-.112373-.33712-.561868-1.46086-.337126-.112375.337122h-1.46086l-.112375-.337122h-.33712l-.674243-.337122h-.89899l-.449497.786617h.674243l.112375.337122,1.348487.337122.22475-.112373.56187.112373.89899.337122.786617.112373h1.460862l.898992.337122,1.123738-.449499s-1.011371-.449487-1.011371-.449491ZM6.95011,45.044513l-.337121-.449499-.337121,1.460858v1.236113l.224748.674241.449495-.22475.224748-.337122.224748-.89899-.224748-.89899s-.224747-.561864-.224748-.56186ZM36.953937,44.819767l-.337122-.337122-.449499.337122-.561868.22475-.337122.786617.112373.22475.674241-.449499h.449499l.22475-.337122.561868.449499-.22475.449499.22475.674241,1.011367.449499.22475-.449499-.22475-.674241.449499-.449499.337122.89899.337122-.89899c-.112373-.449499-.112373-.89899-.22475-1.348489l-.22475-.337122-.674241-.449499v.674241h-.561868l-.112377.337122s-.674241.22475-.674245.224753ZM37.628178,42.122792l.112373.561868h.22475v.561868l.449499-.112373-.22475-.561868v-.337122l.674241.22475-.22475-.89899-.22475-.337122h-.786614l.449499.674241v.337122s-.449499-.112377-.449499-.112373ZM36.054943,36.054602l-.22475.22475-.449491-.22475h-.449499l-.337122.786617-.112373,1.348489-.337122-.22475-.112373.89899.112373.337122.337122.449499.112373-.337122.22475.22475-.22475.22475-.112373.337122.449499.22475.786617-.112373.561868.449499.22475-.337122.112373.561868.674241.449499.112373-.449499-.22475-.22475.112373-.449499-1.011367-.449499-.337118.112373-.449499-.112373-.112373-.674245.22475-.89899.449499-.337122.22475-.674241-.22475-.561868.112373-.337122s-.112377-.224753-.112373-.224753ZM40.774644,50.663207l-.112373-.449499-.337122.337122.112373.674241.22475,1.12374.337122.561868.22475-.112373-.337122-.449499.112373-.561868.449499.112373v-.78661l-.112373-.337122s-.561872-.112377-.561876-.112373ZM68.418623,6.387902h0c-.074918-.074916-.149828-.149831-.224746-.224748h0l.224746.224748ZM70.553726,83.364002l-.561868.224746-.224746.337122-.337122.112369-.449499.449499-.449499.337122c-.337122.224746-.786614.449499-1.123736.561868l-.449499.112369-1.011367.561868-.449499.449499v.224746h.561868l.224746.224746h.449499c.337122-.224746.561868-.337122.898998-.449499l.674245-.561868.337122-.337122.561868-.224746h.449499v-.337122l.449499-.224746c.224746-.224746.561868-.449499.898998-.674245l.112369-.224746v-.224746l-.561868.224746s0-.561868-.000008-.56186ZM71.340339,6.500276l-1.123736-.449496-.898998-.112374.449499.337122-.337114-.112374-.337122-.224748c-.898998-.337122-1.685612-.561869-2.584602-.786617.337122.224748.674245.561869.898998.786617-.337122-.224748-.561868-.561869-.898998-.786617l-.674245-.224748-1.236113-.224749h-.674245l-1.236113-.112374v.112374l.561868.224748-.337126.112374-1.011367-.337122h-.674241l-.89899-.224748h-.674241l-.449499.112374-.561868-.112374-.112373-.224748-.449499-.112374-.786617-.112374h-1.573235l-1.12374-.224748-.449499-.224748c-1.498321-.074916-2.659516-.149832-3.483588-.224748l-.449499.112374.337122.337122h-.674241l-.337122.112373-.89899-.224748-.674241.112374-.561868-.112374-.449499.337122-.561868-.112374-.337122-.337122.337122-.112374-.112373-.224748-.561868-.112374h-1.348489l-.22475.112374h-1.460858v-.112373h-1.12374l-.561868.112373h-.22475v-.224748l-.337122.112374c-.22475-.112374-.561868-.112374-.786617-.112374l.337122-.112374c.561868,0,1.011367-.112374,1.573235-.337122l.22475-.112374-.112373-.112374-.561868-.112374h-.89899l-.337126.112374.112373-.112374h-.561868l.449499-.112374-.337122-.112374-.786617.112374-.561868.224748-.22475.112374h-.449499l-.89899.224748-.112373-.112373h-.674241l-.22475.112374-.786617.112374-.674241.224748h-.337122l-.674245.224748-.22475.112374-.561868.112374h-.449499l-.449499.112374-.674237.337121-.33712.337122v-.224748h-.112373C17.737995,9.421996,7.849094,19.760394,3.129391,32.683387l.224748-.112373.337122-.112373.449496-.22475v.561868l-.112374.561868.112374.22475.112371.674241v.337122l-.224748.337122.112374.89899.224748.112373.561868-.561864c-.112374.561868-.224748,1.12374-.337122,1.685608,0,.786617-.112374,1.685608-.224748,2.584598l.112374,1.12374v1.573235l.112374.786617.112374.337122c.112374.674241.112374,1.348489.224748,2.02273l.337122.674241.224748-.22475.224748-.561868.449496-.22475-.112374-.22475.224748-.674241.224748-.112373.112374-1.460858.337121-.786617c0-.561868.112374-1.236113.112374-1.79798l.224748-.674241.337121-.22475.449495-.337122.224748-.22475c.112374-.112373.112374-.22475.112374-.337122l.56187-.561868c.449495-.561868.786617-1.011367,1.236113-1.573235l.898991-.561868.449495-.449499.112374-.561868.674243-.22475h.33712l.112374-.337122.224749.112373.112374.112373.112374-.112373.224749.112373.33712-.449499v-.337122h.56187l.112375.449499v.786621l.112375.449499.33712.674241.33712.112373-.112375.337122.33712.89899v.786617l-.33712,1.011367.33712.22475h.33712l.786617-.674241.449495-.449499.22475.674241v1.011367l.112375,1.011367.22475.449499-.112375.898986.33712.449499-.224748.674241v.674241l-.22475.786617-.112375.561868.112375.449499.112375-.561868c.22475.337122.449495.561868.674243.89899l.112375.449499.22475.337122.112375.337122-.112377.674241.22475.786617.112375.674241.449495.561868.112375.449499c.56187.337122,1.011363.786617,1.573233,1.236113l.56187-.112373v-.337122l-.33712-.786617-.22475-.22475-.112375-.561868-.112375-.337122-.112375-.449499v-.561868l-.33712-.561868-.449495-.561868-.112375-.112373-.33712-.449499-.449495-.112373-.33712-.449499-.112377-.786614-.22475-.786617h-.449495v-.674241c.33712-.674241.56187-1.348489.786617-2.02273l.112375-.89899h.674243l-.112375.674241h.56187l.56187.337122.33712.89899.33712.449499.56187.112373.56187.561868-.224748.561868.112375.449499,1.011363-.786617.674243-.786617.89899-.561868.674243-.561868.33712-1.348489-.22475-1.573235-.449495-.674241-.674243-.449499c-.33712-.674241-.674243-1.236113-1.011363-1.910357l.22475-.561868.674243-.786617,1.12374-.674241.33712-.112373,1.011363.22475-.22475.337122.112375.561868.449495-.112373.33712-.89899.786617-.112373,1.12374-.449499.449497-.449499.112373.112373.56187-.337122.898988-.112373c.786617-.449499,1.573235-1.011367,2.359848-1.46086l.786617-.89899c.449499-.56187,1.011367-1.236113,1.460858-1.797982l.561868-.22475.22475-.56187.22475-.56187-.449491-.22475-.112373-.449495.449499-.22475.112373-.56187-.449499-.56187-.337122-.674243-.22475-.674243-.674241-.33712.449499-.449495.786617-.33712.337122-.22475,1.011367-.22475v-.33712h-.449499l-.561868-.22475-.89899.449495-.561872-.224748v-.33712l-.561868-.112375-.22475-.449495.449499-.33712h.674241l.561868-.449495.89899-.449495.674241-.22475.337122.33712-.674241.449495.112373.22475-.449499.33712.786617-.22475.561868-.449495,1.011367-.22475.337122.22475.449499.112375v.112375l-.22475.33712v.112375l-.224746.112373-.22475.33712.22475.112375v.449497l.22475-.112375.112373-.112375.337122.112375.449499.56187-.561868.112375.22475.674243-.22475.56187v.33712l.674241-.112375.674241-.33712.674241-.112375.337122-.33712.112373-.786617-.112373-.449495-.561868-.786617-.337122-.33712-.224746-.112375.112373-.112375.112373-.33712.337122-.22475.449499-.112375.337122-.22475.112373-.112375.449499-.112375v-.449495l.22475-.22475.337122-.22475h.224753l.112373-.22475,1.011367-.449495.337122.22475h.449499l1.011367-.33712c.786617-.56187,1.573235-1.236113,2.359848-1.797982l.22475-.449495,1.011367-.89899.22475-.89899v-.674244l.337122-.56187v-.449495l-.89899-.56187h-.674241l-.33713.224749-.561868-.112374-.337122-.337121-.89899-.112373c1.348489-.786617,2.696975-1.46086,4.045456-2.247478l1.79798-.112374,1.685608.112374.561868-.224748.89899.112374v.337121c.674241,0,1.348489,0,2.02273-.112374l-.561868-.337121,1.011367-.786617,1.236113-.112374.674241.56187.89899-.56187.112373-.337121h.561868v.674244l-.674241.337121-.674241.449495-.674237.56187-.786617.112374.112373.224748-.337122.337121v.674244c.449499.674244.786617,1.348487,1.236113,2.022729l.337122.449495.786617-.56187v-.56187l.786617-.112374v-.56187l.89899-.224748-.337122-.224748v-.449495h.449499l-.337122-.786617-.674241-.112374-.112377-.224748.449499-.449495v-.337121l.674241.112374.337122-.224748.337122.224748,1.011367-.337121.89899.337121v-.224748l.449499-.224749.449499-.449495h.337122l.898998-.337121.898998.112374v-.112374l-.224746-.224748-.33713-.112374-.561868-.337121-.561868-.224748h.561868l.337122-.112374-.112369-.112374h0v.112374l-.112369-.112374h0c-.224746-.224748-.337122-.337122-.561868-.561869.112369.112374.224746.224748.337122.337122l.337122-.112374-.112369.224748h.112369l.224746.112374h.337107l.449499.112374.337122.224748.561868.112374.449499.112374h.337122v-.112374l-.449499-.449496h.56186l-.000016.000007ZM73.924941,81.903144l-.337122-.112369-.337122-.224746.112369-.449499-.224746-.224746-.224746.449499-.112369-.674245.112369-.561868-.337122-.224746-.112369-.33713h-.224746v.449499l.224746.561868.337122.337122-.112369.112369v.449491l-.224753.449499-.337122.449499-.561868.224746-.112369.224746.449499.224746v.337122l-.561868.449499.112369.224746v.112369l.561868-.224746c.337122-.337122.674245-.674245,1.011367-.898998l.112369-.224746.224746-.224746h.449499l.337122-.337122.449499-.449499-.224746-.112369s-.449499.224753-.449507.224753ZM81.453985,66.058434c-.112369.112369-.112369.224746-.112369.337122l.112369-.337122h0ZM60.777194,55.72003l.112373.449499-.449499.337122-.22475.337122-.449499.112373-.112373-.449499h-.112373l-.112373.449499-.449491.112377-.786617-.112373-.112373.22475.449499.22475.674241.22475h.449499c.337122-.22475.561868-.337122.89899-.449499l.112373-.22475.449499-.112373.337122-.561868v-.449499l-.112373-.112373s-.561872,0-.561876-.000008ZM79.993119,10.995231l-.224746-.224748.112369-.112374v-.224748l-.224746-.337121-.449499-.224748-.112369-.337121-.224746-.337121h0c-2.359848-1.685609-4.832081-3.146469-7.529044-4.382582v.112374h-.224746l-.112392.112374h-.112369l.112369.112374.224746.224748v.112374h-.449499l.112369.224748.561868.112374c.337122.112374.674245.337122,1.011367.449496l.561868.224748.561868.224748h-.449499l-.224746-.224748h-.224746l-.337122.112374-.112369.112374.674245.224748.337122.224748.561868.112374h.337122l.337122.112374v-.112375l.112369-.112374h.112369v.224749l.337122.224748v.112374h-.224746l.112369.224748-.224753-.112374h-.224746l.224746.224748.112369.224748.224746.224748.449499.224748.337122.224748.337122.224748.561868.224748.224746-.112374.337122.224748.224746.224748.337122.337121h.224746v-.224748l.337122.337121-.112369-.224748.449499.224748-.112369-.224748.224746.112374.112369-.112374.224746.337121.337122.337121v.561871l.112369.224748h-.337122v.224748l-.112369.112374-.112369.224749.112369.112374.449499-.112374.112369-.112374.112369-.112374-.112369-.224748.224746.112374.112369-.224748-.224746-.224748.112369-.224749.000047.000002ZM48.753191,22.344992l-.449499-.33712-.786617,1.236113-.786617-.112375-1.460858.22475-.561868.449495-.786617.33712-.449499.449495-.674241.22475.22475.449495.449499.22475-.22475.674241.337122.22475.561868-.33712.561868-1.236113-.786617-.56187h.89899l.89899-.33712,1.348489-.112375v.56187l.561868.22475,1.12374-.786617h1.348489l1.011367-.33712.337122-.449495-.112373-.33712.22475-.56187v-.674243l.674241-.674245v-.56187l-.449499-.89899-.786617.112375-.337122.449495.112373.786617-.449499.786617c-.561864.224746-1.011359.561868-1.573231.898982ZM41.898384,54.483918l-.89899.112373-.22475.449499h.561868l.449499-.112373.674241.112373.674241.337122-.337122-.674241s-.89899-.22475-.898986-.224753ZM54.371886,85.049613h.449491l.449499-.449499.22475.112369.112373-.449499.22475-.224746.112373-.786614h-.337122c-.337122.112369-.561868.112369-.89899.224746l-.561868-.224746-.449499-.112369v.337122l.337122.561868v.449499s.337126.56186.337122.561868ZM60.664821,73.587478v-.449499l-.112373-.561868-.561868-.561868c-.22475-.224746-.561868-.561868-.786617-.786614v-.786614l-.22475.112369-.22475-.337122-.337122.112369-.22475-.786614-.449491-.449499-.112373.224746c-.337122-.224746-.674241-.449499-1.011367-.674245l-.786617-.449499-.22475-.561868.112373-.449499-.22475-.674245-.22475-.112369c-.112373-.449499-.112373-.786621-.22475-1.123736l.112373-.337122-.337118-.337122-.22475-.337122-.561868.337122-.22475-.674241v-.786617l-.337122-.449499v-.337122l-.22475-.112373v-.561868l-.224746-.449499-.337122.337122v.22475l-.112373.449499-.22475.449499.112373.22475-.112373.112373-.112377.561864.112373.449499-.112373.22475.112373.449499-.22475.674245-.112373.449491-.22475.337122-.112373.449499-.561868.224746-.89899-.224746-.112373-.224746-.449499-.224746h-.22475l-.561868-.449507-.449499-.224746-.674241-.224746-.674241-.449499-.112377-.224746.337122-.449499.22475-.449499-.112373-.337122h.337122l.337122-.337122.22475-.449499-.337122-.449499-.22475.112381-.337122-.112373-.449499.224746-.561868-.22475-.22475.112373-.674241-.224746-.449499-.337122-.561868-.22475-.449499.112373.561868.22475v.449499l-.674241.112373-.449499-.112373-.449499.337122-.337122.449499.112373.22475-.337118.224746-.337122.674241.22475.449495-.561868-.112373h-.449499l-.449499-.449499-.674241-.337122c-.337122.112373-.561868.112373-.786617.22475v.22475l-.337122-.112373v.22475l-.337122.112369-.112373.337118-.449499.449499v.561868l-.337122-.112369-.112373.224746.112373.224746.449499.112369-.337122.112369-.112373-.224746h-.22475l.112373-.112369-.22475-.337122-.449499.674245v.786614l-.449499.449499-.112373.337122-.337122.337122-.786617.224746h-.449499l-.22475.112369-.112373.224746-.449499.112369-.561868.337122-.224746-.112369-.337122.112369-.561868.337122-.337122.337122-.561868.224746-.22475.561868-.22475-.561868-.22475.561868.112373.449499v.337122l-.112373.224746v.449499l.22475.224746.112373.224746.449499.561868.112373.337122-.22475-.224746-.449499-.224746.449499.674245-.337122-.337122.22475.337122.561868.561868.22475.674245.337122.224746.112373.224746.337122.449499.112373.337122.337122.561868.561868.674245.22475.449499v.449499l.112373.224746-.112369.112369-.337122.112369.112373.337122.337122.112369.786617.449499h.89899l.22475-.224746.22475-.224753h.22475l.337122-.337122h.449499l.449499-.112369.561868.112369.449499-.112369h.561868l.22475-.224746.112373-.337122.561868-.224746.674241-.337122h.674241c.561868-.112369,1.12374-.337122,1.685608-.449499l1.236113-.112369.674241.337122h.449499l.89899.449499-.112373.112369.337122.449499.449499.449499v.337114l.561868.224746.22475-.561868.449499-.224746.561868-.561868v.561868l-.22475.337122-.112377.337114-.337122.337122.561868-.112369.337122-.449499.22475.449499-.22475.337122.674241.112369.337122.224746.112373.337122.112373.449499.449503.449491.89899.112369h.337122c.337122,0,.561868.112369.89899.224746l.561868-.449499.337122-.112369-.112373.337122.337122.112369.449499.337122.449499-.224746.337122-.224746.561868-.224746h.786617l.449499-.224746v-.224746l.112373-.449499.22475-.449499.337122-.337122.337122-.561868.22475-.337122.337122-.561868.561868-.224746.449499-.674245.22475-.449499v-.449499c.112373-.337122.22475-.674245.449499-1.011367l.112373-.674245-.22475-.674245.112373-.449507.000012.000055ZM51.787284,12.680838l.337122.56187v.786618l-.112373.449495.112373.674243v.56187l.112377.56187.337122-.33712.561868.33712v-.449495l-.674241-.674243.337122-.89899,1.011367.224749-.674241-1.011364-.337126-.561872v-.56187c-.112373-.33712-.337122-.56187-.449499-.898991l-.22475.112374.22475.224748-.561868.224749s0,.674242-.000004.674241ZM57.405975,57.293265l-1.348481-.561868-.112373-.449499-.449499-.449499-.674241-.674241-1.573235-.449499-1.460858-.561868-.89899-.112373c-.449499-.22475-.89899-.337122-1.348489-.561868h-.786617l-1.011367.561868-.674241.89899-.89899-.561868-.22475-1.348489-.112373-.337122-1.348489-.337122-.449499.337122-1.12374.22475.337122.449499h.674241l.337122.561868h1.236113l.112373.22475h-.561868l-.898986.337122.561868.449499v.337122l.22475.337122h.449499l.22475-.449499,1.236113.786617.674241.112373,1.685608.674241.337122.674241.22475.89899-.561868.22475-.337122.674253h1.12374l.22475-.22475.89899.22475.674241.674241h.89899l.449499.112373.674241-.337122-.112373-.561868.561868-.22475.674241-.22475,1.12374.337122.561868.561868.449499.449499.674241.561868c.561868.112373,1.011367.112373,1.573235.22475l.22475.22475h.561868l.112373-.22475-.89899-.337122.22475-.112373-.674241-.112373v-.337122h-.449499l-.561868-.898994-.786617-.561868-.22475-.561868.786617-.112373s-.22475-.449499-.224753-.449499ZM50.888294,18.524281l.112373.674243h.786617l.337122-.674243,1.12374.449495.561868-.674243,1.011367-.22475-.22475-.674241-.449499.22475-.449499-.112375-.561868-.22475-.786617-.674243-.22475.449495-.22475.89899h-.78661s-.22475.561872-.224746.56187Z" fill="#E6E6E6"/></g>


</g><text id="svgAttribution" x="5" y="355" font-size="6px" fill="#000000" text-anchor="start" dominant-baseline="baseline">© FreeSVGMaps.com</text></svg>